<svg width="129" height="43" viewBox="0 0 129 43" version="1.1" xmlns="http://www.w3.org/2000/svg" xmlns:xlink="http://www.w3.org/1999/xlink">
<title>amasty_logo</title>
<desc>Created using Figma</desc>
<g id="Canvas" transform="translate(11965 14681)">
<g id="amasty_logo">
<g id="Vector">
<use xlink:href="#path0_fill" transform="translate(-11926.8 -14662.1)" fill="#F26321"/>
</g>
<g id="Vector">
<use xlink:href="#path1_fill" transform="translate(-11899 -14662.6)" fill="#F26321"/>
</g>
<g id="Vector">
<use xlink:href="#path2_fill" transform="translate(-11881.1 -14662.6)" fill="#F26321"/>
</g>
<g id="Vector">
<use xlink:href="#path3_fill" transform="translate(-11863.6 -14667.1)" fill="#F26321"/>
</g>
<g id="Vector">
<use xlink:href="#path4_fill" transform="translate(-11852.1 -14662.4)" fill="#F26321"/>
</g>
<g id="Vector">
<use xlink:href="#path5_fill" transform="translate(-11954.1 -14649.5)" fill="#45667F"/>
</g>
<g id="Vector">
<use xlink:href="#path6_fill" transform="translate(-11965 -14681)" fill="#F26321"/>
</g>
</g>
</g>
<defs>
<path id="path0_fill" d="M 20.0818 7.0878C 20.0818 4.71531 18.5901 3.91127 17.2302 3.91127C 15.9055 3.91127 14.3484 4.71531 14.3484 6.98924L 14.3484 17.6171L 10.0404 17.6171L 10.0404 7.08759C 10.0404 4.71531 8.55051 3.91127 7.1923 3.91127C 5.83242 3.91127 4.30554 4.71531 4.30554 7.08759L 4.30554 17.6171L 3.53245e-07 17.6171L 3.53245e-07 0.199817L 4.20736 0.199817L 4.20736 1.80354C 5.338 0.636386 6.92358 4.93914e-07 8.52033 4.93914e-07C 10.4366 4.93914e-07 11.9912 0.705481 13.0902 2.21065C 14.5464 0.67 16.1045 4.93914e-07 18.261 4.93914e-07C 19.981 4.93914e-07 21.5355 0.571439 22.5035 1.54065C 23.8927 2.94476 24.3888 4.58397 24.3888 6.4842L 24.3888 17.6171L 20.0818 17.6171L 20.0818 7.08759L 20.0818 7.0878Z"/>
<path id="path1_fill" d="M 6.56517 10.2641C 5.00356 10.2641 4.14576 10.9945 4.14576 12.237C 4.14576 13.4353 4.93555 14.2393 6.63048 14.2393C 7.819 14.2393 8.58462 14.1416 9.34941 13.405C 9.81014 12.9676 9.97653 12.2664 9.97653 11.1968L 9.97653 10.2641L 6.56496 10.2641L 6.56517 10.2641ZM 10.0757 16.1128C 8.91823 17.2799 7.81921 17.7839 5.83325 17.7839C 3.87726 17.7839 2.4562 17.2799 1.42271 16.2468C 0.496906 15.2776 2.72503e-06 13.8762 2.72503e-06 12.332C 2.72503e-06 9.55678 1.8913 7.28554 5.90125 7.28554L 9.97674 7.28554L 9.97674 6.42029C 9.97674 4.51031 9.04555 3.67784 6.76153 3.67784C 5.10463 3.67784 4.3415 4.08079 3.4467 5.11308L 0.696779 2.40776C 2.38572 0.533467 4.04262 -1.17947e-14 6.92689 -1.17947e-14C 11.7672 -1.17947e-14 14.2864 2.07411 14.2864 6.15221L 14.2864 17.6154L 10.0757 17.6154L 10.0757 16.1128Z"/>
<path id="path2_fill" d="M -2.42225e-06 15.3147L 2.8171 12.4721C 4.24249 13.9098 6.09927 14.1113 7.41698 14.1113C 8.91472 14.1113 10.4726 13.6098 10.4726 12.3017C 10.4726 11.4346 10.0084 10.832 8.64849 10.6988L 5.93308 10.4326C 2.8171 10.1317 0.891286 8.76311 0.891286 5.55213C 0.891286 1.94173 4.04262 -2.15296e-07 7.55815 -2.15296e-07C 10.2384 -2.15296e-07 12.4906 0.470182 14.1459 2.04112L 11.4966 4.75058C 10.5003 3.84715 8.97755 3.58177 7.48333 3.58177C 5.76256 3.58177 5.03828 4.38145 5.03828 5.25127C 5.03828 5.88578 5.30265 6.61803 6.82603 6.75477L 9.53895 7.02265C 12.9546 7.35651 14.6833 9.19366 14.6833 12.1384C 14.6833 15.9804 11.4304 17.8167 7.35744 17.8167C 4.63687 17.8167 2.1848 17.5185 -2.42225e-06 15.3147Z"/>
<path id="path3_fill" d="M 1.82329 17.0811L 1.82329 8.45623L 0 8.45623L 0 5.15022L 1.82329 5.15022L 1.82329 2.78618e-07L 6.12697 2.78618e-07L 6.12697 5.15022L 9.17578 5.15022L 9.17578 8.45623L 6.12697 8.45623L 6.12697 16.8182C 6.12697 17.8177 6.591 18.3857 7.61954 18.3857L 9.17578 18.3857L 9.17578 22.0627L 6.82458 22.0627C 3.3107 22.0627 1.82329 19.558 1.82329 17.0801L 1.82329 17.0811Z"/>
<path id="path4_fill" d="M 7.41801 22.4665C 6.42585 23.4711 5.13565 23.8013 3.70942 23.8013L 2.02482 23.8013L 2.02482 19.8919L 3.01532 19.8919C 4.24084 19.8919 4.73526 19.591 5.17016 18.3182L 5.89877 16.1837L -4.23894e-06 -6.33223e-07L 4.53539 -6.33223e-07L 8.11727 10.7698L 11.564 -6.33223e-07L 16.1002 -6.33223e-07L 8.71236 20.229C 8.34816 21.1972 7.95356 21.9313 7.41801 22.4665Z"/>
<path id="path5_fill" d="M 15.2819 5.01431C 15.2819 3.49109 14.9503 2.33245 14.2889 1.53359C 13.4466 0.511682 12.3304 -5.31907e-07 10.9325 -5.31907e-07C 9.83969 -5.31907e-07 8.7415 0.522886 7.65034 1.57779C 6.66521 0.522886 5.55669 -5.31907e-07 4.31815 -5.31907e-07C 3.11929 -5.31907e-07 2.09882 0.443415 1.25818 1.32278C 0.410711 2.20629 -1.95546e-07 3.27841 -1.95546e-07 4.5406L -1.95546e-07 11.4682L 4.17263 11.4682L 4.17263 5.41374C 4.17263 4.5794 4.40351 4.15922 4.86693 4.15922C 5.12014 4.15922 5.2948 4.24741 5.39133 4.42648C 5.5015 4.60887 5.54904 4.92882 5.54904 5.39817L 5.54904 11.4682L 9.72952 11.4682L 9.72952 5.41374C 9.72952 4.5794 9.9602 4.15922 10.4323 4.15922C 10.688 4.15922 10.8629 4.24741 10.9583 4.42648C 11.0541 4.60887 11.1041 4.92882 11.1041 5.39817L 11.1041 11.4682L 23.6205 11.4641L 23.6205 7.06L 15.2819 7.06L 15.2819 5.01431Z"/>
<path id="path6_fill" d="M 13.6843 22.0757L 18.6056 7.94019L 23.394 22.0757L 13.6843 22.0757ZM 21.2666 5.89734e-15L 15.7075 5.89734e-15L 0 42.9997L 6.25347 42.9997L 11.9067 27.2172L 25.0658 27.2172L 28.2609 36.5985L 34.5171 36.5985L 21.2668 0L 21.2666 5.89734e-15Z"/>
</defs>
</svg>
