<svg width="108" height="57" viewBox="0 0 108 57" fill="none" xmlns="http://www.w3.org/2000/svg">
<path fill-rule="evenodd" clip-rule="evenodd" d="M61.1849 27.56C60.0933 26.1707 58.9024 25.7738 57.3808 26.1046C56.6862 27.8247 55.6607 30.2725 54.503 32.9849C49.7066 39.8322 47.2257 43.7024 47.2257 43.7024C48.0857 39.0052 50.302 33.8781 53.8414 28.2878C52.7498 26.7662 51.4928 26.27 50.0043 26.8323C49.5816 27.7863 49.1546 28.7227 48.7311 29.6511C47.9947 31.2657 47.2693 32.8563 46.5972 34.4735L39.6507 43.934C40.5769 39.336 42.7601 34.3081 46.2003 28.8501C45.0756 27.3616 43.8186 26.8654 42.3301 27.4277C41.6023 29.1147 40.8415 30.7356 40.0807 32.3234L38.4929 29.4455C37.4014 27.9239 36.1113 27.4277 34.6228 28.0231C34.1232 29.1302 33.6182 30.2207 33.1167 31.3036L33.1163 31.3044L33.1163 31.3045L33.1162 31.3046L33.1161 31.3049C32.389 32.875 31.6692 34.4292 30.9841 35.9951L24.203 45.0917C25.4931 39.7991 28.0732 32.6872 30.8187 26.8654C31.5234 26.7429 32.2847 26.6771 32.9978 26.6154L32.998 26.6154L32.9981 26.6154L33.1673 26.6008C33.1342 26.0054 32.9027 25.5092 32.5719 25.1784C32.2832 25.1142 31.9634 25.1434 31.6126 25.1754L31.5795 25.1784L31.853 24.6511C32.6482 23.1168 33.414 21.6391 34.1266 20.4812C33.035 18.9927 31.7449 18.6619 30.1241 18.9927C29.997 19.2913 29.8602 19.6155 29.7138 19.9623L29.7135 19.963L29.7135 19.963L29.7134 19.9633C29.0978 21.422 28.3137 23.28 27.3785 25.3107C26.9154 25.3438 25.5675 25.3686 24.2195 25.3934C22.8716 25.4182 21.5236 25.443 21.0605 25.4761C21.1598 26.3361 21.6229 26.9977 22.119 27.4277C22.2542 27.4165 22.7808 27.4052 23.4296 27.3913C24.6856 27.3644 26.3996 27.3278 26.6177 27.2623C24.7984 31.5626 22.7806 36.4913 21.2921 40.593C21.0274 39.0383 20.2666 37.8475 19.4397 37.1859C18.78 36.8807 17.3233 36.3616 15.5771 35.7393C11.4566 34.2709 5.72424 32.228 5.05048 31.0664C1.61031 24.9468 19.6051 9.92915 29.3302 3.6773C29.9256 4.70273 20.6967 19.4227 10.4754 25.8069C10.5536 26.0633 10.6284 26.3368 10.7047 26.6159C11.2093 28.4613 11.7806 30.5504 13.8494 29.5448C20.6305 24.0206 32.9357 10.3592 31.8111 1.26256C31.5274 1.11125 31.2665 0.96955 31.0275 0.839755C30.0127 0.288553 29.3931 -0.0479768 29.0986 0.00557118C23.5745 2.71802 16.7272 7.64673 10.4423 13.7663C3.06577 20.812 -2.16065 28.6516 0.882579 33.8119C2.5201 36.6345 8.88728 38.615 13.1644 39.9454C15.4537 40.6574 17.1442 41.1833 17.1903 41.5523C17.488 43.6693 2.20572 51.4759 0.254086 51.8397C0.3864 54.0229 0.882579 56.1069 2.47035 56.9008C8.85452 53.4606 16.2972 48.4988 20.2005 44.0001C19.8697 45.0586 19.572 46.0179 19.3735 46.8449C19.572 48.995 20.9944 50.1858 23.4753 50.6158L28.2717 43.3385C27.974 44.2317 27.7093 45.1579 27.4778 46.1171C27.6432 48.2011 28.9663 49.425 31.4141 49.7889C34.5897 44.7278 36.4752 41.3869 36.4752 41.3869C36.0451 42.677 35.6482 44.0332 35.2512 45.4225C35.4497 47.4734 36.7398 48.6973 39.1214 49.0611L43.8186 41.8831C43.5209 42.8093 43.2563 43.7355 42.9916 44.6948C43.157 46.7787 44.4471 48.0026 46.8288 48.3334C49.2104 44.5625 50.7982 41.7838 51.4598 40.6261C49.5412 45.5879 47.788 50.3843 47.1265 53.3944C47.358 55.4784 48.6812 56.6692 51.0628 57C50.7651 51.112 56.8185 34.9697 61.1849 27.56ZM31.7781 45.0917C32.572 40.7915 34.4905 36.0943 37.5668 31.0333L39.2869 34.2089C35.8546 39.0558 33.5767 42.4395 32.4988 44.0406C32.0393 44.7232 31.7978 45.0818 31.7781 45.0917ZM75.5409 15.8502C76.6656 15.5525 78.3526 15.6518 79.3781 16.2803L75.6733 23.4583C74.4064 22.4566 73.9005 22.3471 73.1973 22.1949L73.1971 22.1948C73.1108 22.1761 73.0217 22.1568 72.9277 22.1352L75.5409 15.8502ZM107.197 28.9825C105.278 31.5295 100.714 37.3183 98.332 39.4353C96.645 40.8908 96.4134 39.4022 96.4796 38.5091C96.7111 37.5498 96.9427 36.6236 97.2073 35.6974C97.7366 36.4252 98.8943 36.6236 99.7213 36.3259C102.401 34.2089 106.039 25.4431 103.79 24.2853C103.79 24.2853 103.128 23.8222 101.309 22.9622C100.284 22.6314 99.5228 22.8629 98.8613 23.6237C96.9758 26.27 95.3549 29.4787 94.1972 33.2496L89.8639 39.3692C90.7239 34.9697 92.7748 30.1072 95.9173 24.8807C94.9249 23.3922 93.7341 22.9622 92.3778 23.5245C90.6578 24.8477 87.5153 28.9825 84.4721 34.1758C85.5637 31.3972 87.0522 28.4532 88.8715 25.4431C87.8792 23.9545 86.6552 23.4914 85.2659 24.0538C83.5128 25.3769 80.3042 29.5448 77.2609 34.7712C78.3525 31.9596 79.808 29.0156 81.7265 25.9723C80.668 24.4838 79.4772 24.0207 78.0879 24.583C77.9959 24.7887 77.9041 24.9939 77.8125 25.1986L77.6264 25.6145C76.5313 28.0613 75.4648 30.4443 74.4492 32.8527L68.462 41.1885C69.3551 36.6898 71.4722 31.7942 74.7139 26.5347C73.6554 25.013 72.4314 24.583 71.0752 25.1454C70.8074 25.7421 70.5396 26.3354 70.2731 26.9259C69.3872 28.8885 68.5149 30.821 67.7012 32.7534L61.2178 41.6847C62.9048 34.3743 67.172 23.5245 70.546 17.8019C69.5205 16.3795 68.2966 16.0157 66.8081 16.3465C66.4265 17.2845 65.9431 18.4509 65.3943 19.7748L65.3935 19.7769L65.3934 19.777C62.5169 26.717 57.8473 37.9831 56.653 43.3717C56.8845 45.3895 58.1746 46.6134 60.5232 47.0103L65.0549 39.9977C64.7903 40.8577 64.5587 41.7177 64.3272 42.5778C64.4926 44.6287 65.7165 45.8195 67.9658 46.1834L71.9353 39.9646C71.9046 40.0718 71.874 40.1782 71.8435 40.2842L71.8434 40.2845C71.6763 40.8652 71.5128 41.4332 71.3729 42.0485C71.5383 44.0002 72.6299 45.1579 74.7139 45.5879C74.7554 45.5983 74.7904 45.6087 74.822 45.6181C74.891 45.6385 74.9435 45.6541 75.0116 45.6541V45.3233C75.2101 41.9824 80.1718 32.2242 83.1489 28.8832C81.3627 32.9188 79.7418 36.8883 78.6171 41.387C78.7825 43.3386 79.9072 44.4633 81.925 44.8933C81.9604 44.9021 81.9934 44.911 82.0241 44.9192L82.0242 44.9192C82.1081 44.9417 82.1743 44.9594 82.2227 44.9594V44.6287C82.4212 41.2877 87.3168 31.5957 90.2608 28.3209C88.5407 32.3234 86.9529 36.2598 85.8283 40.7585C85.9937 42.7763 87.1845 43.934 89.4008 44.2979L92.874 38.7737L92.7748 39.2699C92.6094 39.8653 92.7086 40.4938 93.0394 41.2216C93.304 41.4531 95.7519 43.6032 95.7519 43.6032C98.2434 43.6032 103.074 37.4297 105.479 34.3571L105.543 34.2751C105.62 34.1764 105.699 34.0764 105.78 33.975L105.78 33.9743C106.937 32.5124 108.31 30.7763 107.197 28.9825ZM99.325 33.1834C100.417 31.5626 103.394 23.5575 101.078 26.8654C99.8212 28.8832 98.7626 31.0995 97.9357 33.4811C98.4649 33.7457 98.928 33.6134 99.325 33.1834Z" fill="black"/>
</svg>
