<?xml version="1.0" encoding="utf-8"?>
<!-- Generator: Adobe Illustrator 22.1.0, SVG Export Plug-In . SVG Version: 6.00 Build 0)  -->
<svg version="1.1" id="Layer_1" xmlns="http://www.w3.org/2000/svg" xmlns:xlink="http://www.w3.org/1999/xlink" x="0px" y="0px"
	 viewBox="0 0 800 800" style="enable-background:new 0 0 800 800;" xml:space="preserve">
<style type="text/css">
	.st0{fill:#2C4E6A;}
</style>
<g>
	<g>
		<path class="st0" d="M114,438.3h50.1v200.5c0,11.8,9.7,21.5,21.5,21.5h146.8c11.8,0,21.5-9.7,21.5-21.5V492h89.5v146.8
			c0,11.8,9.7,21.5,21.5,21.5h139.7c11.8,0,21.5-9.7,21.5-21.5V438.3H687c8.6,0,16.5-5.4,19.7-13.2c3.2-7.9,1.4-17.2-4.7-23.3
			l-280-284c-8.2-8.2-21.8-8.6-30.1-0.4l-292.6,284c-6.4,6.1-8.2,15.4-5,23.6C97.5,433.3,105.4,438.3,114,438.3L114,438.3z
			 M406.2,163.3l229.2,232h-30.8c-11.8,0-21.5,9.7-21.5,21.5v200.5h-96.7V470.6c0-11.8-9.7-21.5-21.5-21.5H332.5
			c-11.8,0-21.5,9.7-21.5,21.5v146.8H207.1V416.8c0-11.8-9.7-21.5-21.5-21.5H167L406.2,163.3z M406.2,163.3"/>
	</g>
</g>
</svg>
